<?xml version="1.0" encoding="UTF-8" standalone="no"?><!DOCTYPE svg PUBLIC "-//W3C//DTD SVG 1.1//EN" "http://www.w3.org/Graphics/SVG/1.1/DTD/svg11.dtd"><svg width="100%" height="100%" viewBox="0 0 100 31" version="1.1" xmlns="http://www.w3.org/2000/svg" xmlns:xlink="http://www.w3.org/1999/xlink" xml:space="preserve" xmlns:serif="http://www.serif.com/" style="fill-rule:evenodd;clip-rule:evenodd;stroke-linejoin:round;stroke-miterlimit:1.41421;"><path d="M91.277,26.473c-0.249,0.29 -0.591,0.435 -1.024,0.435l-1.096,0l0,-2.896l1.096,0c0.433,0 0.775,0.142 1.024,0.425c0.232,0.278 0.347,0.619 0.347,1.023c0,0.404 -0.115,0.742 -0.347,1.013m1.566,2.692c-0.131,-0.177 -1.031,-1.383 -1.158,-1.569c0.116,-0.09 0.326,-0.302 0.424,-0.417c0.408,-0.476 0.613,-1.049 0.613,-1.719c0,-0.67 -0.205,-1.243 -0.613,-1.72c-0.463,-0.543 -1.081,-0.814 -1.856,-0.814l-1.645,0c-0.152,0 -0.282,0.053 -0.388,0.158c-0.107,0.106 -0.16,0.234 -0.16,0.385l0,6.516c0,0.145 0.053,0.272 0.16,0.38c0.106,0.109 0.236,0.163 0.388,0.163c0.152,0 0.282,-0.054 0.388,-0.163c0.107,-0.108 0.161,-0.235 0.161,-0.38l0,-1.991l1.051,0c0.347,0.03 0.374,0.013 0.625,0.206c0.115,0.09 0.523,0.591 0.609,0.724c0.268,0.415 0.464,0.667 0.853,1.207c0.13,0.172 0.182,0.28 0.304,0.362c0.125,0.083 0.306,0.086 0.488,0c0.166,-0.079 0.128,-0.067 0.244,-0.242c0.107,-0.161 0.033,-0.278 0,-0.362c-0.321,-0.545 -0.073,-0.163 -0.488,-0.724m-45.308,-5.153l1.096,0c0.433,0 0.774,0.142 1.024,0.425c0.232,0.278 0.348,0.619 0.348,1.023c0,0.404 -0.116,0.742 -0.348,1.013c-0.25,0.29 -0.591,0.435 -1.024,0.435l-1.096,0l0,-2.896Zm1.675,4.188c0.116,0.09 0.524,0.591 0.61,0.724c0.268,0.415 0.464,0.667 0.853,1.207c0.13,0.172 0.183,0.28 0.305,0.362c0.124,0.083 0.305,0.086 0.487,0c0.166,-0.079 0.127,-0.067 0.244,-0.242c0.108,-0.161 0.034,-0.278 0,-0.362c-0.321,-0.545 -0.073,-0.163 -0.488,-0.724c-0.131,-0.177 -1.031,-1.383 -1.157,-1.569c0.115,-0.09 0.325,-0.302 0.423,-0.417c0.408,-0.476 0.613,-1.049 0.613,-1.719c0,-0.67 -0.205,-1.243 -0.613,-1.72c-0.463,-0.543 -1.082,-0.814 -1.856,-0.814l-1.645,0c-0.152,0 -0.282,0.053 -0.388,0.158c-0.107,0.106 -0.16,0.234 -0.16,0.385l0,6.516c0,0.145 0.053,0.272 0.16,0.38c0.106,0.109 0.236,0.163 0.388,0.163c0.152,0 0.282,-0.054 0.389,-0.163c0.106,-0.108 0.16,-0.235 0.16,-0.38l0,-1.991l1.051,0c0.347,0.03 0.375,0.013 0.624,0.206m50.264,-0.831c-0.152,-0.259 -0.366,-0.473 -0.64,-0.642c-0.061,-0.042 -0.125,-0.08 -0.192,-0.113c-0.067,-0.033 -0.126,-0.062 -0.178,-0.086c-0.052,-0.024 -0.12,-0.051 -0.206,-0.082c-0.085,-0.029 -0.146,-0.051 -0.182,-0.063c-0.037,-0.012 -0.108,-0.032 -0.211,-0.059c-0.104,-0.027 -0.164,-0.043 -0.183,-0.05c-0.018,-0.006 -0.146,-0.039 -0.384,-0.099c-0.597,-0.145 -0.999,-0.287 -1.206,-0.426c-0.128,-0.09 -0.222,-0.19 -0.284,-0.298c-0.073,-0.139 -0.11,-0.317 -0.11,-0.534c0,-0.072 0.033,-0.163 0.097,-0.271c0.064,-0.109 0.154,-0.209 0.269,-0.299c0.28,-0.223 0.586,-0.335 0.914,-0.335c0.33,0 0.634,0.112 0.915,0.335c0.121,0.09 0.213,0.19 0.274,0.299c0.06,0.108 0.091,0.199 0.091,0.271c0,0.151 0.054,0.279 0.16,0.385c0.107,0.105 0.236,0.158 0.389,0.158c0.152,0 0.282,-0.053 0.388,-0.158c0.107,-0.106 0.16,-0.234 0.16,-0.385c0,-0.537 -0.259,-1.011 -0.777,-1.421c-0.481,-0.38 -0.722,-0.57 -0.722,-0.57l-0.878,0c-0.584,0 -1.118,0.19 -1.599,0.57c-0.518,0.41 -0.777,0.884 -0.777,1.421c0,0.386 0.079,0.727 0.238,1.023c0.146,0.277 0.356,0.51 0.63,0.697c0.146,0.102 0.323,0.196 0.53,0.28c0.207,0.085 0.371,0.144 0.489,0.177c0.119,0.033 0.297,0.08 0.535,0.14c0.627,0.15 1.036,0.286 1.225,0.407c0.128,0.078 0.22,0.166 0.274,0.262c0.067,0.115 0.101,0.266 0.101,0.453c0,0.151 -0.041,0.29 -0.124,0.416c-0.082,0.127 -0.208,0.242 -0.379,0.344c-0.158,0.103 -0.343,0.183 -0.553,0.24c-0.21,0.057 -0.406,0.086 -0.59,0.086c-0.451,0 -0.841,-0.127 -1.17,-0.38c-0.152,-0.121 -0.268,-0.253 -0.347,-0.398c-0.085,-0.151 -0.128,-0.314 -0.128,-0.489c0,-0.151 -0.053,-0.279 -0.16,-0.384c-0.107,-0.106 -0.236,-0.159 -0.388,-0.159c-0.153,0 -0.282,0.053 -0.389,0.159c-0.107,0.105 -0.16,0.233 -0.16,0.384c0,0.054 0.003,0.112 0.009,0.172c0.025,0.301 0.11,0.585 0.256,0.851c0.158,0.277 0.369,0.515 0.631,0.714c0.53,0.411 1.145,0.616 1.846,0.616c0.634,0 1.213,-0.163 1.737,-0.488c0.287,-0.181 0.515,-0.399 0.686,-0.652c0.213,-0.314 0.32,-0.658 0.32,-1.032c0,-0.374 -0.083,-0.703 -0.247,-0.987m-13.511,-3.357c0.153,0 0.282,-0.053 0.389,-0.158c0.107,-0.106 0.16,-0.234 0.16,-0.385c0,-0.151 -0.053,-0.279 -0.16,-0.385c-0.107,-0.105 -0.236,-0.158 -0.389,-0.158l-3.29,0c-0.152,0 -0.282,0.053 -0.389,0.158c-0.106,0.106 -0.16,0.234 -0.16,0.385l0,6.516c0,0.145 0.049,0.268 0.147,0.371c0.11,0.114 0.243,0.172 0.402,0.172l3.29,0c0.153,0 0.282,-0.053 0.389,-0.158c0.107,-0.106 0.16,-0.234 0.16,-0.385c0,-0.151 -0.053,-0.279 -0.16,-0.385c-0.107,-0.105 -0.236,-0.158 -0.389,-0.158l-2.742,0l0,-2.172l2.377,0c0.152,0 0.282,-0.052 0.388,-0.158c0.107,-0.106 0.161,-0.234 0.161,-0.385c0,-0.151 -0.054,-0.279 -0.161,-0.385c-0.106,-0.105 -0.236,-0.158 -0.388,-0.158l-2.377,0l0,-2.172l2.742,0Zm-5.392,-0.543c0,-0.151 -0.055,-0.279 -0.165,-0.385c-0.11,-0.105 -0.238,-0.158 -0.384,-0.158l-5.119,0c-0.153,0 -0.274,0.051 -0.366,0.154c-0.091,0.102 -0.136,0.217 -0.136,0.344l0,0.09c0,0.151 0.051,0.272 0.155,0.362c0.103,0.091 0.219,0.136 0.347,0.136l2.011,0l0,5.973c0,0.145 0.053,0.272 0.16,0.38c0.106,0.109 0.236,0.163 0.388,0.163c0.153,0 0.282,-0.054 0.389,-0.163c0.106,-0.108 0.16,-0.235 0.16,-0.38l0,-5.973l2.011,0c0.146,0 0.274,-0.053 0.384,-0.158c0.11,-0.106 0.165,-0.234 0.165,-0.385m-6.811,4.887c0,-0.374 -0.082,-0.703 -0.247,-0.987c-0.152,-0.259 -0.365,-0.473 -0.639,-0.642c-0.061,-0.042 -0.125,-0.08 -0.192,-0.113c-0.067,-0.033 -0.127,-0.062 -0.179,-0.086c-0.052,-0.024 -0.12,-0.051 -0.205,-0.082c-0.085,-0.029 -0.146,-0.051 -0.183,-0.063c-0.037,-0.012 -0.107,-0.032 -0.21,-0.059c-0.104,-0.027 -0.165,-0.043 -0.183,-0.05c-0.018,-0.006 -0.146,-0.039 -0.384,-0.099c-0.597,-0.145 -0.999,-0.287 -1.207,-0.426c-0.128,-0.09 -0.222,-0.19 -0.283,-0.298c-0.073,-0.139 -0.109,-0.317 -0.109,-0.534c0,-0.072 0.031,-0.163 0.095,-0.271c0.064,-0.109 0.154,-0.209 0.27,-0.299c0.28,-0.223 0.585,-0.335 0.914,-0.335c0.329,0 0.634,0.112 0.914,0.335c0.122,0.09 0.213,0.19 0.274,0.299c0.061,0.108 0.092,0.199 0.092,0.271c0,0.151 0.053,0.279 0.16,0.385c0.106,0.105 0.236,0.158 0.388,0.158c0.153,0 0.282,-0.053 0.388,-0.158c0.107,-0.106 0.161,-0.234 0.161,-0.385c0,-0.537 -0.259,-1.011 -0.777,-1.421c-0.482,-0.38 -0.722,-0.57 -0.722,-0.57l-0.878,0c-0.585,0 -1.118,0.19 -1.6,0.57c-0.518,0.41 -0.777,0.884 -0.777,1.421c0,0.386 0.079,0.727 0.238,1.023c0.146,0.277 0.356,0.51 0.631,0.697c0.146,0.102 0.323,0.196 0.53,0.28c0.207,0.085 0.37,0.144 0.489,0.177c0.119,0.033 0.297,0.08 0.535,0.14c0.627,0.15 1.036,0.286 1.225,0.407c0.128,0.078 0.219,0.166 0.274,0.262c0.067,0.115 0.101,0.266 0.101,0.453c0,0.151 -0.041,0.29 -0.124,0.416c-0.082,0.127 -0.209,0.242 -0.379,0.344c-0.159,0.103 -0.343,0.183 -0.553,0.24c-0.211,0.057 -0.407,0.086 -0.59,0.086c-0.451,0 -0.841,-0.127 -1.17,-0.38c-0.152,-0.121 -0.268,-0.253 -0.347,-0.398c-0.086,-0.151 -0.128,-0.314 -0.128,-0.489c0,-0.151 -0.054,-0.279 -0.16,-0.384c-0.107,-0.106 -0.237,-0.159 -0.389,-0.159c-0.152,0 -0.282,0.053 -0.388,0.159c-0.107,0.105 -0.16,0.233 -0.16,0.384c0,0.054 0.003,0.112 0.009,0.172c0.024,0.301 0.11,0.585 0.256,0.851c0.158,0.277 0.368,0.515 0.631,0.714c0.53,0.411 1.145,0.616 1.846,0.616c0.634,0 1.213,-0.163 1.737,-0.488c0.286,-0.181 0.515,-0.399 0.686,-0.652c0.213,-0.314 0.319,-0.658 0.319,-1.032m-9.689,-3.394l0.905,2.308l-1.81,0l0.905,-2.308Zm-2.56,5.566c0.116,0 0.221,-0.032 0.316,-0.095c0.094,-0.063 0.16,-0.149 0.196,-0.258l0.713,-1.819l2.67,0l0.712,1.819c0.043,0.109 0.11,0.195 0.202,0.258c0.091,0.063 0.194,0.095 0.31,0.095c0.153,0 0.282,-0.053 0.389,-0.158c0.106,-0.106 0.16,-0.234 0.16,-0.385c0,-0.073 -0.012,-0.139 -0.037,-0.199l-2.559,-6.516c-0.043,-0.103 -0.11,-0.186 -0.201,-0.249c-0.092,-0.064 -0.195,-0.095 -0.311,-0.095c-0.116,0 -0.22,0.031 -0.311,0.095c-0.092,0.063 -0.158,0.146 -0.201,0.249l-2.56,6.516c-0.024,0.06 -0.036,0.126 -0.036,0.199c0,0.151 0.053,0.279 0.16,0.385c0.107,0.105 0.236,0.158 0.388,0.158m-7.102,-5.72c0.536,-0.531 1.182,-0.796 1.938,-0.796c0.755,0 1.401,0.265 1.937,0.796c0.537,0.531 0.805,1.171 0.805,1.919c0,0.748 -0.268,1.388 -0.805,1.919c-0.536,0.531 -1.182,0.796 -1.937,0.796c-0.756,0 -1.402,-0.265 -1.938,-0.796c-0.537,-0.531 -0.805,-1.171 -0.805,-1.919c0,-0.748 0.268,-1.388 0.805,-1.919m-0.777,4.607c0.749,0.742 1.654,1.113 2.715,1.113c1.06,0 1.965,-0.371 2.715,-1.113c0.749,-0.742 1.124,-1.638 1.124,-2.688c0,-1.05 -0.375,-1.946 -1.124,-2.688c-0.75,-0.742 -1.655,-1.113 -2.715,-1.113c-1.061,0 -1.966,0.371 -2.715,1.113c-0.75,0.742 -1.124,1.638 -1.124,2.688c0,1.05 0.374,1.946 1.124,2.688m-18.165,1.128l3.291,0c0.153,0 0.282,-0.053 0.389,-0.159c0.106,-0.105 0.16,-0.234 0.16,-0.384c0,-0.151 -0.054,-0.279 -0.16,-0.385c-0.107,-0.105 -0.236,-0.158 -0.389,-0.158l-2.742,0l0,-2.172l2.377,0c0.152,0 0.281,-0.053 0.388,-0.159c0.107,-0.105 0.16,-0.233 0.16,-0.384c0,-0.151 -0.053,-0.279 -0.16,-0.385c-0.107,-0.105 -0.236,-0.158 -0.388,-0.158l-2.377,0l0,-2.173l2.742,0c0.153,0 0.282,-0.052 0.389,-0.158c0.106,-0.105 0.16,-0.233 0.16,-0.384c0,-0.151 -0.054,-0.279 -0.16,-0.385c-0.107,-0.106 -0.236,-0.158 -0.389,-0.158l-3.291,0c-0.152,0 -0.281,0.052 -0.388,0.158c-0.106,0.106 -0.16,0.234 -0.16,0.385l0,6.516c0,0.145 0.049,0.268 0.146,0.371c0.11,0.115 0.244,0.172 0.402,0.172m-2.65,-6.517c0.152,0 0.281,-0.052 0.388,-0.158c0.107,-0.105 0.16,-0.233 0.16,-0.384c0,-0.151 -0.053,-0.279 -0.16,-0.385c-0.107,-0.106 -0.236,-0.158 -0.388,-0.158l-3.291,0c-0.152,0 -0.282,0.052 -0.388,0.158c-0.107,0.106 -0.161,0.234 -0.161,0.385l0,6.516c0,0.145 0.049,0.268 0.146,0.371c0.11,0.115 0.244,0.172 0.403,0.172l3.291,0c0.152,0 0.281,-0.053 0.388,-0.159c0.107,-0.105 0.16,-0.234 0.16,-0.384c0,-0.151 -0.053,-0.279 -0.16,-0.385c-0.107,-0.105 -0.236,-0.158 -0.388,-0.158l-2.742,0l0,-2.172l2.376,0c0.153,0 0.282,-0.053 0.388,-0.159c0.107,-0.105 0.161,-0.233 0.161,-0.384c0,-0.151 -0.054,-0.279 -0.161,-0.385c-0.106,-0.105 -0.235,-0.158 -0.388,-0.158l-2.376,0l0,-2.173l2.742,0Zm-9.621,-0.927c-0.107,0.106 -0.16,0.234 -0.16,0.385l0,6.516c0,0.15 0.053,0.279 0.16,0.384c0.106,0.106 0.236,0.159 0.388,0.159c0.153,0 0.282,-0.053 0.389,-0.159c0.106,-0.105 0.16,-0.234 0.16,-0.384l0,-2.715l2.376,0c0.153,0 0.282,-0.053 0.389,-0.159c0.106,-0.105 0.16,-0.233 0.16,-0.384c0,-0.151 -0.054,-0.279 -0.16,-0.385c-0.107,-0.105 -0.236,-0.158 -0.389,-0.158l-2.376,0l0,-2.173l2.742,0c0.152,0 0.282,-0.052 0.388,-0.158c0.107,-0.105 0.161,-0.233 0.161,-0.384c0,-0.151 -0.054,-0.279 -0.161,-0.385c-0.106,-0.106 -0.236,-0.158 -0.388,-0.158l-3.291,0c-0.152,0 -0.282,0.052 -0.388,0.158m-1.714,0.385c0,-0.151 -0.054,-0.279 -0.16,-0.385c-0.107,-0.106 -0.236,-0.158 -0.388,-0.158l-3.291,0c-0.153,0 -0.282,0.052 -0.389,0.158c-0.106,0.106 -0.16,0.234 -0.16,0.385l0,6.516c0,0.15 0.054,0.279 0.16,0.384c0.107,0.106 0.236,0.159 0.389,0.159c0.152,0 0.282,-0.053 0.388,-0.159c0.107,-0.105 0.16,-0.234 0.16,-0.384l0,-2.715l2.377,0c0.152,0 0.282,-0.053 0.389,-0.159c0.106,-0.105 0.159,-0.233 0.159,-0.384c0,-0.151 -0.053,-0.279 -0.159,-0.385c-0.107,-0.105 -0.237,-0.158 -0.389,-0.158l-2.377,0l0,-2.173l2.743,0c0.152,0 0.281,-0.052 0.388,-0.158c0.106,-0.105 0.16,-0.233 0.16,-0.384m-7.843,5.177c-0.536,0.53 -1.182,0.796 -1.938,0.796c-0.756,0 -1.402,-0.266 -1.938,-0.796c-0.536,-0.532 -0.804,-1.171 -0.804,-1.919c0,-0.748 0.268,-1.388 0.804,-1.919c0.536,-0.531 1.182,-0.797 1.938,-0.797c0.756,0 1.402,0.266 1.938,0.797c0.536,0.531 0.805,1.171 0.805,1.919c0,0.748 -0.269,1.387 -0.805,1.919m0.777,-4.607c-0.75,-0.742 -1.655,-1.113 -2.715,-1.113c-1.06,0 -1.965,0.371 -2.715,1.113c-0.749,0.742 -1.124,1.638 -1.124,2.688c0,1.05 0.375,1.946 1.124,2.688c0.75,0.742 1.655,1.113 2.715,1.113c1.06,0 1.965,-0.371 2.715,-1.113c0.75,-0.742 1.124,-1.638 1.124,-2.688c0,-1.05 -0.374,-1.946 -1.124,-2.688m-13.693,4.914c0.048,0.061 0.097,0.121 0.146,0.181c0.073,0.091 0.15,0.178 0.229,0.263c0.201,0.199 0.423,0.374 0.667,0.525c0.03,0.024 0.064,0.044 0.1,0.063c0.037,0.024 0.074,0.045 0.11,0.063c0.03,0.018 0.064,0.036 0.101,0.054c0.036,0.019 0.073,0.037 0.11,0.055c0.036,0.018 0.072,0.036 0.109,0.054c0.037,0.012 0.073,0.027 0.11,0.045c0.42,0.169 0.859,0.26 1.316,0.272c0.597,0.018 1.17,-0.097 1.718,-0.344c0.354,-0.163 0.674,-0.371 0.96,-0.624c0.122,-0.103 0.183,-0.239 0.183,-0.408c0,-0.145 -0.053,-0.271 -0.16,-0.38c-0.106,-0.108 -0.236,-0.163 -0.388,-0.163c-0.14,0 -0.263,0.049 -0.366,0.145c-0.548,0.483 -1.188,0.712 -1.92,0.688c-0.316,-0.012 -0.624,-0.076 -0.923,-0.19c-0.03,-0.012 -0.058,-0.024 -0.082,-0.036c-0.055,-0.025 -0.106,-0.049 -0.155,-0.073c-0.025,-0.012 -0.052,-0.027 -0.082,-0.045c-0.049,-0.024 -0.098,-0.051 -0.147,-0.082c-0.17,-0.108 -0.329,-0.235 -0.475,-0.38c-0.055,-0.06 -0.11,-0.123 -0.165,-0.19c-0.037,-0.042 -0.07,-0.084 -0.1,-0.127c-0.341,-0.464 -0.515,-0.981 -0.521,-1.551c-0.007,-0.571 0.149,-1.091 0.466,-1.562c0.03,-0.042 0.064,-0.084 0.1,-0.127c0.049,-0.066 0.104,-0.132 0.165,-0.198c0.524,-0.555 1.17,-0.845 1.938,-0.87c0.694,-0.018 1.307,0.194 1.837,0.634c0.098,0.091 0.216,0.136 0.357,0.136c0.158,0 0.292,-0.057 0.402,-0.172c0.097,-0.103 0.146,-0.227 0.146,-0.371c0,-0.175 -0.067,-0.314 -0.201,-0.416c-0.725,-0.61 -1.566,-0.908 -2.523,-0.896c-0.518,0.012 -1.018,0.121 -1.499,0.325c-0.481,0.205 -0.902,0.504 -1.262,0.896c-0.079,0.085 -0.155,0.172 -0.228,0.263c-0.049,0.06 -0.094,0.123 -0.137,0.19c-0.024,0.03 -0.046,0.063 -0.064,0.1c-0.408,0.633 -0.607,1.328 -0.594,2.085c0.012,0.758 0.231,1.447 0.658,2.068c0.018,0.037 0.039,0.07 0.064,0.1m84.262,-12.009l7.343,0c0.339,0 0.627,-0.117 0.866,-0.352c0.237,-0.237 0.356,-0.523 0.356,-0.859c0,-0.336 -0.119,-0.622 -0.356,-0.857c-0.239,-0.236 -0.527,-0.354 -0.866,-0.354l-6.118,0l0,-13.326c0,-0.336 -0.123,-0.622 -0.368,-0.857c-0.244,-0.235 -0.53,-0.354 -0.857,-0.354c-0.339,0 -0.628,0.119 -0.866,0.354c-0.237,0.235 -0.356,0.521 -0.356,0.857l0,14.537c0,0.323 0.108,0.599 0.326,0.828c0.244,0.255 0.543,0.383 0.896,0.383m-11.622,-12.416l2.018,5.148l-4.038,0l2.02,-5.148Zm-5.71,12.416c0.258,0 0.492,-0.07 0.704,-0.212c0.21,-0.14 0.356,-0.333 0.438,-0.574l1.591,-4.058l5.954,0l1.591,4.058c0.094,0.241 0.245,0.434 0.448,0.574c0.204,0.142 0.435,0.212 0.693,0.212c0.34,0 0.629,-0.117 0.867,-0.352c0.238,-0.237 0.357,-0.523 0.357,-0.859c0,-0.161 -0.027,-0.309 -0.082,-0.443l-5.709,-14.538c-0.096,-0.229 -0.246,-0.413 -0.449,-0.554c-0.203,-0.142 -0.435,-0.213 -0.693,-0.213c-0.259,0 -0.489,0.071 -0.694,0.213c-0.204,0.141 -0.353,0.325 -0.448,0.554l-5.709,14.538c-0.055,0.134 -0.082,0.282 -0.082,0.443c0,0.336 0.118,0.622 0.356,0.859c0.238,0.235 0.527,0.352 0.867,0.352m-15.701,0c0.338,0 0.628,-0.117 0.865,-0.352c0.238,-0.237 0.358,-0.523 0.358,-0.859l0,-10.538l7.544,11.204c0.245,0.364 0.585,0.545 1.02,0.545c0.341,0 0.629,-0.117 0.867,-0.352c0.238,-0.237 0.357,-0.523 0.357,-0.859l0,-14.537c0,-0.336 -0.123,-0.622 -0.367,-0.857c-0.245,-0.235 -0.537,-0.354 -0.877,-0.354c-0.326,0 -0.609,0.119 -0.846,0.354c-0.238,0.235 -0.357,0.521 -0.357,0.857l0,10.54l-7.545,-11.205c-0.245,-0.364 -0.585,-0.546 -1.019,-0.546c-0.341,0 -0.629,0.119 -0.867,0.354c-0.239,0.235 -0.358,0.521 -0.358,0.857l0,14.537c0,0.336 0.119,0.622 0.358,0.859c0.238,0.235 0.526,0.352 0.867,0.352m-13.561,-14.536l2.446,0c0.966,0 1.727,0.317 2.285,0.949c0.516,0.619 0.774,1.379 0.774,2.282c0,0.902 -0.258,1.655 -0.774,2.261c-0.558,0.645 -1.319,0.969 -2.285,0.969l-2.446,0l0,-6.461Zm-1.225,14.536c0.341,0 0.629,-0.12 0.867,-0.363c0.238,-0.241 0.358,-0.525 0.358,-0.848l0,-4.442l2.345,0c0.775,0.069 0.835,0.029 1.393,0.46c0.258,0.202 1.167,1.318 1.359,1.615c0.598,0.927 1.037,1.488 1.904,2.693c0.289,0.383 0.407,0.626 0.679,0.807c0.278,0.186 0.681,0.193 1.088,0c0.37,-0.176 0.284,-0.149 0.544,-0.539c0.241,-0.36 0.074,-0.62 0,-0.807c-0.716,-1.216 -0.163,-0.364 -1.088,-1.615c-0.293,-0.397 -2.301,-3.087 -2.583,-3.5c0.259,-0.202 0.727,-0.675 0.945,-0.93c0.91,-1.064 1.367,-2.342 1.367,-3.836c0,-1.494 -0.457,-2.773 -1.367,-3.837c-1.033,-1.21 -2.413,-1.817 -4.14,-1.817l-3.671,0c-0.339,0 -0.628,0.119 -0.865,0.354c-0.238,0.235 -0.358,0.521 -0.358,0.857l0,14.537c0,0.323 0.12,0.607 0.358,0.848c0.237,0.243 0.526,0.363 0.865,0.363m-13.253,0l7.34,0c0.34,0 0.629,-0.117 0.867,-0.352c0.237,-0.237 0.357,-0.523 0.357,-0.859c0,-0.336 -0.12,-0.622 -0.357,-0.857c-0.238,-0.236 -0.527,-0.354 -0.867,-0.354l-6.117,0l0,-4.846l5.302,0c0.34,0 0.629,-0.117 0.867,-0.353c0.237,-0.236 0.356,-0.522 0.356,-0.858c0,-0.336 -0.119,-0.622 -0.356,-0.858c-0.238,-0.236 -0.527,-0.353 -0.867,-0.353l-5.302,0l0,-4.846l6.117,0c0.34,0 0.629,-0.117 0.867,-0.353c0.237,-0.236 0.357,-0.522 0.357,-0.859c0,-0.336 -0.12,-0.622 -0.357,-0.857c-0.238,-0.235 -0.527,-0.354 -0.867,-0.354l-7.34,0c-0.341,0 -0.63,0.119 -0.868,0.354c-0.237,0.235 -0.357,0.521 -0.357,0.857l0,14.537c0,0.323 0.11,0.599 0.327,0.828c0.244,0.255 0.543,0.383 0.898,0.383m-12.766,-0.767c0.095,0.229 0.244,0.415 0.449,0.555c0.203,0.142 0.434,0.212 0.693,0.212c0.258,0 0.49,-0.07 0.693,-0.212c0.205,-0.14 0.354,-0.326 0.449,-0.555l5.71,-14.536c0.054,-0.134 0.081,-0.282 0.081,-0.445c0,-0.336 -0.12,-0.622 -0.357,-0.857c-0.237,-0.235 -0.527,-0.354 -0.866,-0.354c-0.259,0 -0.49,0.071 -0.694,0.213c-0.204,0.141 -0.353,0.333 -0.449,0.575l-4.567,11.608l-4.568,-11.608c-0.082,-0.242 -0.228,-0.434 -0.438,-0.575c-0.211,-0.142 -0.446,-0.213 -0.704,-0.213c-0.34,0 -0.629,0.119 -0.867,0.354c-0.238,0.235 -0.357,0.521 -0.357,0.857c0,0.163 0.028,0.311 0.082,0.445l5.71,14.536Z" style="fill:#080707;"/></svg>