<?xml version="1.0" encoding="UTF-8" standalone="no"?><!DOCTYPE svg PUBLIC "-//W3C//DTD SVG 1.1//EN" "http://www.w3.org/Graphics/SVG/1.1/DTD/svg11.dtd"><svg width="100%" height="100%" viewBox="0 0 151 83" version="1.1" xmlns="http://www.w3.org/2000/svg" xmlns:xlink="http://www.w3.org/1999/xlink" xml:space="preserve" xmlns:serif="http://www.serif.com/" style="fill-rule:evenodd;clip-rule:evenodd;stroke-linejoin:round;stroke-miterlimit:1.41421;"><path d="M127.142,70.972c-0.701,0.814 -1.66,1.221 -2.876,1.221l-3.08,0l0,-8.134l3.08,0c1.216,0 2.175,0.398 2.876,1.194c0.651,0.78 0.975,1.738 0.975,2.873c0,1.136 -0.324,2.084 -0.975,2.846m4.399,7.562c-0.369,-0.5 -2.896,-3.886 -3.252,-4.407c0.325,-0.254 0.915,-0.85 1.189,-1.172c1.148,-1.338 1.721,-2.948 1.721,-4.829c0,-1.881 -0.573,-3.491 -1.721,-4.83c-1.301,-1.525 -3.037,-2.287 -5.212,-2.287l-4.622,0c-0.427,0 -0.79,0.148 -1.09,0.444c-0.299,0.297 -0.449,0.656 -0.449,1.081l0,18.302c0,0.407 0.15,0.763 0.449,1.067c0.3,0.305 0.663,0.458 1.09,0.458c0.429,0 0.792,-0.153 1.092,-0.458c0.299,-0.304 0.45,-0.66 0.45,-1.067l0,-5.592l2.952,0c0.976,0.085 1.053,0.035 1.755,0.578c0.325,0.254 1.47,1.659 1.712,2.034c0.752,1.166 1.304,1.872 2.396,3.389c0.364,0.484 0.512,0.788 0.855,1.016c0.35,0.234 0.857,0.243 1.37,0c0.465,-0.219 0.358,-0.188 0.683,-0.678c0.304,-0.453 0.094,-0.781 0,-1.016c-0.9,-1.531 -0.203,-0.458 -1.368,-2.033m-127.26,-14.475l3.081,0c1.215,0 2.173,0.398 2.876,1.194c0.651,0.78 0.975,1.738 0.975,2.873c0,1.136 -0.324,2.084 -0.975,2.846c-0.703,0.814 -1.661,1.221 -2.876,1.221l-3.081,0l0,-8.134Zm4.707,11.763c0.325,0.254 1.469,1.659 1.711,2.034c0.753,1.166 1.306,1.872 2.397,3.389c0.365,0.484 0.513,0.788 0.855,1.016c0.35,0.234 0.858,0.243 1.37,0c0.465,-0.219 0.357,-0.188 0.685,-0.678c0.302,-0.453 0.094,-0.781 0,-1.016c-0.901,-1.531 -0.204,-0.458 -1.37,-2.033c-0.369,-0.5 -2.897,-3.886 -3.252,-4.407c0.325,-0.254 0.916,-0.85 1.19,-1.172c1.146,-1.338 1.72,-2.948 1.72,-4.829c0,-1.881 -0.574,-3.491 -1.72,-4.83c-1.301,-1.525 -3.039,-2.287 -5.212,-2.287l-4.621,0c-0.429,0 -0.792,0.148 -1.091,0.444c-0.301,0.297 -0.45,0.656 -0.45,1.081l0,18.302c0,0.407 0.149,0.763 0.45,1.067c0.299,0.305 0.662,0.458 1.091,0.458c0.427,0 0.791,-0.153 1.09,-0.458c0.3,-0.304 0.45,-0.66 0.45,-1.067l0,-5.592l2.953,0c0.975,0.085 1.052,0.035 1.754,0.578m141.177,-2.333c-0.429,-0.729 -1.028,-1.33 -1.797,-1.805c-0.172,-0.117 -0.352,-0.224 -0.539,-0.317c-0.19,-0.093 -0.356,-0.174 -0.501,-0.242c-0.146,-0.067 -0.338,-0.143 -0.578,-0.229c-0.24,-0.083 -0.411,-0.143 -0.513,-0.177c-0.104,-0.034 -0.301,-0.09 -0.591,-0.166c-0.292,-0.076 -0.462,-0.122 -0.514,-0.14c-0.05,-0.016 -0.411,-0.109 -1.078,-0.279c-1.678,-0.407 -2.808,-0.805 -3.388,-1.195c-0.361,-0.254 -0.625,-0.534 -0.797,-0.839c-0.206,-0.389 -0.309,-0.889 -0.309,-1.499c0,-0.203 0.092,-0.458 0.27,-0.763c0.18,-0.305 0.433,-0.585 0.758,-0.838c0.786,-0.628 1.644,-0.941 2.567,-0.941c0.925,0 1.781,0.313 2.568,0.941c0.342,0.253 0.598,0.533 0.77,0.838c0.17,0.305 0.257,0.56 0.257,0.763c0,0.423 0.15,0.783 0.449,1.081c0.299,0.296 0.664,0.444 1.091,0.444c0.428,0 0.792,-0.148 1.092,-0.444c0.299,-0.298 0.45,-0.658 0.45,-1.081c0,-1.509 -0.729,-2.839 -2.184,-3.991c-1.351,-1.068 -2.028,-1.601 -2.028,-1.601l-2.465,0c-1.642,0 -3.141,0.533 -4.492,1.601c-1.455,1.152 -2.183,2.482 -2.183,3.991c0,1.084 0.223,2.042 0.668,2.872c0.41,0.779 1,1.432 1.772,1.958c0.41,0.287 0.906,0.551 1.488,0.788c0.582,0.237 1.04,0.403 1.374,0.496c0.333,0.092 0.834,0.224 1.501,0.393c1.762,0.423 2.91,0.805 3.441,1.143c0.36,0.221 0.617,0.467 0.77,0.738c0.189,0.322 0.283,0.746 0.283,1.271c0,0.424 -0.115,0.813 -0.347,1.169c-0.231,0.356 -0.586,0.679 -1.065,0.967c-0.446,0.288 -0.964,0.512 -1.553,0.673c-0.591,0.161 -1.142,0.241 -1.657,0.241c-1.266,0 -2.363,-0.356 -3.286,-1.067c-0.428,-0.339 -0.753,-0.712 -0.976,-1.118c-0.24,-0.424 -0.36,-0.881 -0.36,-1.373c0,-0.423 -0.149,-0.784 -0.448,-1.08c-0.3,-0.297 -0.664,-0.445 -1.092,-0.445c-0.428,0 -0.792,0.148 -1.091,0.445c-0.3,0.296 -0.449,0.657 -0.449,1.08c0,0.152 0.008,0.313 0.026,0.482c0.068,0.847 0.309,1.645 0.719,2.39c0.444,0.78 1.035,1.449 1.771,2.008c1.49,1.152 3.217,1.729 5.186,1.729c1.781,0 3.406,-0.458 4.878,-1.372c0.805,-0.509 1.447,-1.119 1.925,-1.83c0.6,-0.882 0.9,-1.848 0.9,-2.899c0,-1.05 -0.232,-1.973 -0.693,-2.771m-37.948,-9.43c0.428,0 0.792,-0.149 1.092,-0.445c0.299,-0.297 0.45,-0.656 0.45,-1.08c0,-0.425 -0.151,-0.784 -0.45,-1.081c-0.3,-0.296 -0.664,-0.444 -1.092,-0.444l-9.242,0c-0.428,0 -0.792,0.148 -1.092,0.444c-0.299,0.297 -0.449,0.656 -0.449,1.081l0,18.302c0,0.407 0.137,0.753 0.411,1.041c0.309,0.322 0.685,0.484 1.13,0.484l9.242,0c0.428,0 0.792,-0.149 1.092,-0.445c0.299,-0.296 0.45,-0.657 0.45,-1.08c0,-0.424 -0.151,-0.783 -0.45,-1.081c-0.3,-0.296 -0.664,-0.445 -1.092,-0.445l-7.703,0l0,-6.1l6.676,0c0.428,0 0.792,-0.148 1.092,-0.445c0.299,-0.296 0.45,-0.657 0.45,-1.081c0,-0.423 -0.151,-0.783 -0.45,-1.079c-0.3,-0.298 -0.664,-0.446 -1.092,-0.446l-6.676,0l0,-6.1l7.703,0Zm-15.147,-1.525c0,-0.425 -0.154,-0.784 -0.463,-1.081c-0.307,-0.296 -0.667,-0.444 -1.078,-0.444l-14.378,0c-0.428,0 -0.77,0.143 -1.026,0.431c-0.258,0.289 -0.385,0.611 -0.385,0.967l0,0.253c0,0.425 0.145,0.763 0.436,1.017c0.29,0.255 0.616,0.382 0.975,0.382l5.649,0l0,16.777c0,0.407 0.149,0.763 0.449,1.067c0.299,0.305 0.663,0.458 1.091,0.458c0.428,0 0.792,-0.153 1.091,-0.458c0.299,-0.304 0.449,-0.66 0.449,-1.067l0,-16.777l5.649,0c0.411,0 0.771,-0.149 1.078,-0.445c0.309,-0.297 0.463,-0.656 0.463,-1.08m-19.128,13.726c0,-1.05 -0.231,-1.973 -0.693,-2.771c-0.428,-0.729 -1.027,-1.33 -1.798,-1.805c-0.17,-0.117 -0.35,-0.224 -0.538,-0.317c-0.189,-0.093 -0.356,-0.174 -0.502,-0.242c-0.145,-0.067 -0.338,-0.143 -0.576,-0.229c-0.24,-0.083 -0.412,-0.143 -0.514,-0.177c-0.103,-0.034 -0.301,-0.09 -0.591,-0.166c-0.291,-0.076 -0.462,-0.122 -0.513,-0.14c-0.052,-0.016 -0.411,-0.109 -1.079,-0.279c-1.677,-0.407 -2.806,-0.805 -3.389,-1.195c-0.36,-0.254 -0.625,-0.534 -0.795,-0.839c-0.206,-0.389 -0.308,-0.889 -0.308,-1.499c0,-0.203 0.089,-0.458 0.269,-0.763c0.18,-0.305 0.432,-0.585 0.758,-0.838c0.786,-0.628 1.643,-0.941 2.567,-0.941c0.924,0 1.779,0.313 2.567,0.941c0.343,0.253 0.599,0.533 0.77,0.838c0.171,0.305 0.258,0.56 0.258,0.763c0,0.423 0.149,0.783 0.448,1.081c0.3,0.296 0.663,0.444 1.092,0.444c0.427,0 0.792,-0.148 1.09,-0.444c0.3,-0.298 0.45,-0.658 0.45,-1.081c0,-1.509 -0.727,-2.839 -2.183,-3.991c-1.352,-1.068 -2.028,-1.601 -2.028,-1.601l-2.464,0c-1.644,0 -3.142,0.533 -4.494,1.601c-1.455,1.152 -2.182,2.482 -2.182,3.991c0,1.084 0.222,2.042 0.667,2.872c0.412,0.779 1.001,1.432 1.772,1.958c0.411,0.287 0.907,0.551 1.49,0.788c0.581,0.237 1.04,0.403 1.373,0.496c0.334,0.092 0.834,0.224 1.502,0.393c1.763,0.423 2.91,0.805 3.441,1.143c0.359,0.221 0.615,0.467 0.769,0.738c0.189,0.322 0.283,0.746 0.283,1.271c0,0.424 -0.115,0.813 -0.346,1.169c-0.232,0.356 -0.588,0.679 -1.066,0.967c-0.445,0.288 -0.963,0.512 -1.553,0.673c-0.591,0.161 -1.143,0.241 -1.656,0.241c-1.267,0 -2.363,-0.356 -3.286,-1.067c-0.428,-0.339 -0.753,-0.712 -0.977,-1.118c-0.239,-0.424 -0.358,-0.881 -0.358,-1.373c0,-0.423 -0.15,-0.784 -0.45,-1.08c-0.3,-0.297 -0.664,-0.445 -1.091,-0.445c-0.428,0 -0.792,0.148 -1.092,0.445c-0.299,0.296 -0.449,0.657 -0.449,1.08c0,0.152 0.009,0.313 0.026,0.482c0.068,0.847 0.308,1.645 0.719,2.39c0.444,0.78 1.035,1.449 1.772,2.008c1.488,1.152 3.217,1.729 5.186,1.729c1.779,0 3.405,-0.458 4.877,-1.372c0.805,-0.509 1.447,-1.119 1.927,-1.83c0.598,-0.882 0.898,-1.848 0.898,-2.899m-27.215,-9.532l2.541,6.482l-5.083,0l2.542,-6.482Zm-7.189,15.633c0.324,0 0.62,-0.089 0.886,-0.267c0.265,-0.178 0.449,-0.419 0.552,-0.724l2.002,-5.11l7.498,0l2.002,5.11c0.119,0.305 0.307,0.546 0.565,0.724c0.256,0.178 0.547,0.267 0.873,0.267c0.427,0 0.791,-0.149 1.091,-0.445c0.298,-0.296 0.449,-0.657 0.449,-1.08c0,-0.204 -0.034,-0.39 -0.102,-0.559l-7.189,-18.303c-0.12,-0.289 -0.308,-0.521 -0.565,-0.699c-0.256,-0.178 -0.548,-0.266 -0.873,-0.266c-0.326,0 -0.617,0.088 -0.873,0.266c-0.257,0.178 -0.445,0.41 -0.565,0.699l-7.189,18.303c-0.068,0.169 -0.102,0.355 -0.102,0.559c0,0.423 0.149,0.784 0.449,1.08c0.299,0.296 0.662,0.445 1.091,0.445m-19.95,-16.066c1.507,-1.49 3.32,-2.236 5.443,-2.236c2.123,0 3.937,0.746 5.443,2.236c1.506,1.491 2.26,3.289 2.26,5.389c0,2.102 -0.754,3.898 -2.26,5.389c-1.506,1.492 -3.32,2.237 -5.443,2.237c-2.123,0 -3.936,-0.745 -5.443,-2.237c-1.506,-1.491 -2.259,-3.287 -2.259,-5.389c0,-2.1 0.753,-3.898 2.259,-5.389m-2.181,12.939c2.105,2.085 4.646,3.127 7.624,3.127c2.979,0 5.521,-1.042 7.626,-3.127c2.105,-2.084 3.158,-4.601 3.158,-7.55c0,-2.949 -1.053,-5.465 -3.158,-7.549c-2.105,-2.084 -4.647,-3.126 -7.626,-3.126c-2.978,0 -5.519,1.042 -7.624,3.126c-2.106,2.084 -3.158,4.6 -3.158,7.549c0,2.949 1.052,5.466 3.158,7.55m78.211,-27.377l9.244,0c0.428,0 0.791,-0.148 1.09,-0.445c0.3,-0.297 0.45,-0.657 0.45,-1.08c0,-0.423 -0.15,-0.784 -0.45,-1.081c-0.299,-0.296 -0.662,-0.444 -1.09,-0.444l-7.702,0l0,-6.101l6.675,0c0.428,0 0.791,-0.148 1.09,-0.445c0.3,-0.296 0.45,-0.657 0.45,-1.081c0,-0.423 -0.15,-0.784 -0.45,-1.08c-0.299,-0.296 -0.662,-0.444 -1.09,-0.444l-6.675,0l0,-6.102l7.702,0c0.428,0 0.791,-0.148 1.09,-0.444c0.3,-0.296 0.45,-0.657 0.45,-1.081c0,-0.423 -0.15,-0.783 -0.45,-1.081c-0.299,-0.296 -0.662,-0.444 -1.09,-0.444l-9.244,0c-0.427,0 -0.79,0.148 -1.09,0.444c-0.299,0.298 -0.45,0.658 -0.45,1.081l0,18.303c0,0.406 0.138,0.754 0.411,1.042c0.308,0.322 0.685,0.483 1.129,0.483m-7.444,-18.303c0.427,0 0.79,-0.148 1.09,-0.444c0.299,-0.296 0.45,-0.657 0.45,-1.081c0,-0.423 -0.151,-0.783 -0.45,-1.081c-0.3,-0.296 -0.663,-0.444 -1.09,-0.444l-9.244,0c-0.428,0 -0.791,0.148 -1.09,0.444c-0.3,0.298 -0.45,0.658 -0.45,1.081l0,18.303c0,0.406 0.137,0.754 0.41,1.042c0.309,0.322 0.685,0.483 1.13,0.483l9.244,0c0.427,0 0.79,-0.148 1.09,-0.445c0.299,-0.297 0.45,-0.657 0.45,-1.08c0,-0.423 -0.151,-0.784 -0.45,-1.081c-0.3,-0.296 -0.663,-0.444 -1.09,-0.444l-7.703,0l0,-6.101l6.676,0c0.427,0 0.79,-0.148 1.09,-0.445c0.3,-0.296 0.45,-0.657 0.45,-1.081c0,-0.423 -0.15,-0.784 -0.45,-1.08c-0.3,-0.296 -0.663,-0.444 -1.09,-0.444l-6.676,0l0,-6.102l7.703,0Zm-27.023,-2.606c-0.299,0.298 -0.45,0.658 -0.45,1.081l0,18.303c0,0.423 0.151,0.783 0.45,1.08c0.299,0.297 0.663,0.445 1.091,0.445c0.428,0 0.791,-0.148 1.091,-0.445c0.3,-0.297 0.45,-0.657 0.45,-1.08l0,-7.626l6.674,0c0.429,0 0.792,-0.148 1.092,-0.445c0.299,-0.296 0.45,-0.657 0.45,-1.081c0,-0.423 -0.151,-0.784 -0.45,-1.08c-0.3,-0.296 -0.663,-0.444 -1.092,-0.444l-6.674,0l0,-6.102l7.702,0c0.428,0 0.791,-0.148 1.09,-0.444c0.3,-0.296 0.45,-0.657 0.45,-1.081c0,-0.423 -0.15,-0.783 -0.45,-1.081c-0.299,-0.296 -0.662,-0.444 -1.09,-0.444l-9.243,0c-0.428,0 -0.792,0.148 -1.091,0.444m-4.814,1.081c0,-0.423 -0.15,-0.783 -0.449,-1.081c-0.301,-0.296 -0.664,-0.444 -1.091,-0.444l-9.244,0c-0.427,0 -0.792,0.148 -1.09,0.444c-0.3,0.298 -0.45,0.658 -0.45,1.081l0,18.303c0,0.423 0.15,0.783 0.45,1.08c0.298,0.297 0.663,0.445 1.09,0.445c0.428,0 0.792,-0.148 1.092,-0.445c0.299,-0.297 0.45,-0.657 0.45,-1.08l0,-7.626l6.674,0c0.429,0 0.792,-0.148 1.092,-0.445c0.299,-0.296 0.449,-0.657 0.449,-1.081c0,-0.423 -0.15,-0.784 -0.449,-1.08c-0.3,-0.296 -0.663,-0.444 -1.092,-0.444l-6.674,0l0,-6.102l7.702,0c0.427,0 0.79,-0.148 1.091,-0.444c0.299,-0.296 0.449,-0.657 0.449,-1.081m-22.029,14.541c-1.506,1.491 -3.32,2.237 -5.443,2.237c-2.123,0 -3.937,-0.746 -5.443,-2.237c-1.506,-1.492 -2.259,-3.288 -2.259,-5.39c0,-2.101 0.753,-3.897 2.259,-5.389c1.506,-1.491 3.32,-2.237 5.443,-2.237c2.123,0 3.937,0.746 5.443,2.237c1.506,1.492 2.26,3.288 2.26,5.389c0,2.102 -0.754,3.898 -2.26,5.39m2.183,-12.939c-2.106,-2.085 -4.648,-3.127 -7.626,-3.127c-2.978,0 -5.519,1.042 -7.625,3.127c-2.105,2.085 -3.159,4.601 -3.159,7.549c0,2.95 1.054,5.466 3.159,7.551c2.106,2.084 4.647,3.126 7.625,3.126c2.978,0 5.52,-1.042 7.626,-3.126c2.105,-2.085 3.158,-4.601 3.158,-7.551c0,-2.948 -1.053,-5.464 -3.158,-7.549m-38.461,13.803c0.137,0.17 0.274,0.339 0.412,0.508c0.204,0.255 0.419,0.501 0.641,0.738c0.565,0.559 1.189,1.05 1.874,1.474c0.086,0.067 0.181,0.126 0.282,0.178c0.103,0.068 0.207,0.127 0.309,0.177c0.084,0.052 0.18,0.102 0.282,0.153c0.103,0.052 0.205,0.102 0.309,0.153c0.102,0.051 0.204,0.101 0.308,0.152c0.102,0.034 0.205,0.077 0.307,0.127c1.181,0.475 2.413,0.729 3.698,0.763c1.677,0.05 3.286,-0.272 4.826,-0.966c0.992,-0.458 1.891,-1.042 2.696,-1.754c0.342,-0.288 0.513,-0.67 0.513,-1.144c0,-0.407 -0.149,-0.763 -0.448,-1.067c-0.3,-0.305 -0.664,-0.458 -1.092,-0.458c-0.393,0 -0.736,0.136 -1.027,0.408c-1.54,1.354 -3.337,1.999 -5.392,1.931c-0.889,-0.034 -1.754,-0.213 -2.593,-0.535c-0.086,-0.033 -0.162,-0.067 -0.23,-0.101c-0.154,-0.068 -0.3,-0.136 -0.437,-0.203c-0.068,-0.034 -0.146,-0.076 -0.231,-0.128c-0.137,-0.067 -0.274,-0.143 -0.411,-0.229c-0.479,-0.304 -0.924,-0.66 -1.335,-1.067c-0.153,-0.169 -0.308,-0.348 -0.462,-0.533c-0.104,-0.119 -0.198,-0.237 -0.282,-0.357c-0.959,-1.304 -1.448,-2.758 -1.464,-4.359c-0.018,-1.601 0.419,-3.063 1.31,-4.384c0.085,-0.119 0.18,-0.239 0.282,-0.357c0.136,-0.186 0.291,-0.373 0.463,-0.559c1.471,-1.559 3.285,-2.373 5.442,-2.441c1.951,-0.05 3.671,0.543 5.161,1.78c0.273,0.254 0.607,0.382 1.002,0.382c0.444,0 0.821,-0.161 1.129,-0.484c0.273,-0.288 0.411,-0.636 0.411,-1.042c0,-0.491 -0.189,-0.88 -0.565,-1.169c-2.037,-1.712 -4.4,-2.551 -7.087,-2.517c-1.454,0.034 -2.858,0.34 -4.21,0.916c-1.353,0.575 -2.533,1.414 -3.544,2.516c-0.222,0.237 -0.435,0.483 -0.641,0.737c-0.137,0.17 -0.266,0.347 -0.385,0.534c-0.068,0.085 -0.128,0.178 -0.18,0.28c-1.147,1.778 -1.704,3.732 -1.67,5.859c0.036,2.127 0.651,4.062 1.85,5.808c0.051,0.102 0.11,0.195 0.179,0.28m98.23,-26.082l9.245,0c0.426,0 0.789,-0.148 1.09,-0.444c0.298,-0.297 0.449,-0.658 0.449,-1.08c0,-0.423 -0.151,-0.784 -0.449,-1.08c-0.301,-0.296 -0.664,-0.445 -1.09,-0.445l-7.704,0l0,-16.778c0,-0.423 -0.154,-0.784 -0.463,-1.08c-0.306,-0.296 -0.667,-0.445 -1.078,-0.445c-0.428,0 -0.791,0.149 -1.09,0.445c-0.3,0.296 -0.449,0.657 -0.449,1.08l0,18.303c0,0.406 0.136,0.754 0.41,1.042c0.308,0.321 0.684,0.482 1.129,0.482m-14.634,-15.632l2.541,6.482l-5.083,0l2.542,-6.482Zm-7.189,15.632c0.326,0 0.62,-0.088 0.886,-0.266c0.266,-0.178 0.449,-0.42 0.552,-0.724l2.004,-5.109l7.496,0l2.003,5.109c0.119,0.304 0.308,0.546 0.564,0.724c0.257,0.178 0.548,0.266 0.873,0.266c0.428,0 0.792,-0.148 1.091,-0.444c0.3,-0.297 0.449,-0.658 0.449,-1.08c0,-0.204 -0.034,-0.389 -0.102,-0.559l-7.189,-18.303c-0.121,-0.288 -0.309,-0.521 -0.565,-0.698c-0.256,-0.179 -0.547,-0.268 -0.873,-0.268c-0.325,0 -0.615,0.089 -0.873,0.268c-0.257,0.177 -0.445,0.41 -0.564,0.698l-7.188,18.303c-0.07,0.17 -0.104,0.355 -0.104,0.559c0,0.422 0.149,0.783 0.449,1.08c0.3,0.296 0.664,0.444 1.091,0.444m-19.768,0c0.426,0 0.79,-0.148 1.09,-0.444c0.3,-0.297 0.45,-0.658 0.45,-1.08l0,-13.269l9.498,14.107c0.309,0.459 0.737,0.686 1.284,0.686c0.429,0 0.792,-0.148 1.092,-0.444c0.299,-0.297 0.45,-0.658 0.45,-1.08l0,-18.303c0,-0.423 -0.155,-0.784 -0.463,-1.08c-0.308,-0.296 -0.676,-0.445 -1.103,-0.445c-0.411,0 -0.767,0.149 -1.066,0.445c-0.299,0.296 -0.45,0.657 -0.45,1.08l0,13.27l-9.499,-14.108c-0.308,-0.458 -0.736,-0.687 -1.283,-0.687c-0.429,0 -0.792,0.149 -1.092,0.445c-0.3,0.296 -0.45,0.657 -0.45,1.08l0,18.303c0,0.422 0.15,0.783 0.45,1.08c0.3,0.296 0.663,0.444 1.092,0.444m-17.074,-18.301l3.08,0c1.216,0 2.174,0.398 2.876,1.195c0.65,0.779 0.975,1.736 0.975,2.872c0,1.136 -0.325,2.084 -0.975,2.847c-0.702,0.813 -1.66,1.221 -2.876,1.221l-3.08,0l0,-8.135Zm-1.541,18.301c0.428,0 0.791,-0.151 1.091,-0.457c0.3,-0.304 0.45,-0.661 0.45,-1.067l0,-5.593l2.952,0c0.977,0.086 1.052,0.037 1.754,0.58c0.326,0.253 1.47,1.658 1.712,2.032c0.753,1.168 1.305,1.874 2.397,3.391c0.364,0.482 0.512,0.788 0.855,1.016c0.35,0.234 0.858,0.243 1.37,0c0.465,-0.221 0.357,-0.188 0.685,-0.678c0.303,-0.454 0.093,-0.781 0,-1.016c-0.901,-1.532 -0.206,-0.459 -1.37,-2.034c-0.369,-0.5 -2.897,-3.886 -3.252,-4.407c0.325,-0.253 0.915,-0.849 1.189,-1.171c1.147,-1.339 1.721,-2.949 1.721,-4.83c0,-1.881 -0.574,-3.491 -1.721,-4.831c-1.301,-1.523 -3.038,-2.287 -5.212,-2.287l-4.621,0c-0.428,0 -0.792,0.149 -1.091,0.445c-0.299,0.296 -0.45,0.657 -0.45,1.08l0,18.303c0,0.406 0.151,0.763 0.45,1.067c0.299,0.306 0.663,0.457 1.091,0.457m-16.688,0l9.243,0c0.427,0 0.792,-0.148 1.091,-0.444c0.299,-0.297 0.449,-0.658 0.449,-1.08c0,-0.423 -0.15,-0.784 -0.449,-1.08c-0.299,-0.296 -0.664,-0.445 -1.091,-0.445l-7.702,0l0,-6.101l6.675,0c0.428,0 0.792,-0.148 1.091,-0.446c0.299,-0.296 0.449,-0.656 0.449,-1.079c0,-0.423 -0.15,-0.784 -0.449,-1.081c-0.299,-0.296 -0.663,-0.444 -1.091,-0.444l-6.675,0l0,-6.101l7.702,0c0.427,0 0.792,-0.148 1.091,-0.445c0.299,-0.296 0.449,-0.657 0.449,-1.081c0,-0.423 -0.15,-0.784 -0.449,-1.08c-0.299,-0.296 -0.664,-0.445 -1.091,-0.445l-9.243,0c-0.428,0 -0.793,0.149 -1.092,0.445c-0.299,0.296 -0.449,0.657 -0.449,1.08l0,18.303c0,0.406 0.137,0.754 0.411,1.042c0.308,0.321 0.684,0.482 1.13,0.482m-16.072,-0.965c0.119,0.288 0.307,0.521 0.565,0.699c0.256,0.178 0.547,0.266 0.873,0.266c0.325,0 0.616,-0.088 0.872,-0.266c0.258,-0.178 0.446,-0.411 0.566,-0.699l7.188,-18.302c0.068,-0.169 0.103,-0.356 0.103,-0.56c0,-0.423 -0.151,-0.784 -0.449,-1.08c-0.3,-0.296 -0.664,-0.445 -1.092,-0.445c-0.325,0 -0.616,0.089 -0.873,0.268c-0.257,0.177 -0.445,0.419 -0.565,0.724l-5.75,14.616l-5.751,-14.616c-0.104,-0.305 -0.288,-0.547 -0.552,-0.724c-0.266,-0.179 -0.562,-0.268 -0.886,-0.268c-0.429,0 -0.792,0.149 -1.092,0.445c-0.299,0.296 -0.45,0.657 -0.45,1.08c0,0.204 0.036,0.391 0.104,0.56l7.189,18.302Z" style="fill:#080707;"/></svg>