<?xml version="1.0" encoding="UTF-8" standalone="no"?><!DOCTYPE svg PUBLIC "-//W3C//DTD SVG 1.1//EN" "http://www.w3.org/Graphics/SVG/1.1/DTD/svg11.dtd"><svg width="100%" height="100%" viewBox="0 0 512 512" version="1.1" xmlns="http://www.w3.org/2000/svg" xmlns:xlink="http://www.w3.org/1999/xlink" xml:space="preserve" xmlns:serif="http://www.serif.com/" style="fill-rule:evenodd;clip-rule:evenodd;stroke-linejoin:round;stroke-miterlimit:1.41421;"><path d="M492,152l-71.868,0l-150.175,-146.324c-7.766,-7.568 -20.148,-7.568 -27.914,0l-150.175,146.324l-71.868,0c-11.046,0 -20,8.954 -20,20l0,80c0,11.046 8.954,20 20,20l14.782,0l56.683,224.888c2.239,8.886 10.23,15.112 19.394,15.112l290.283,0c9.163,0 17.154,-6.227 19.394,-15.112l56.683,-224.888l14.781,0c11.046,0 20,-8.954 20,-20l0,-80c0,-11.045 -8.954,-20 -20,-20Zm-236,-104.076l106.816,104.076l-213.631,0l106.815,-104.076Zm129.557,424.076l-259.113,0l-50.41,-200l359.934,0l-50.411,200Zm86.443,-240l-432,0l0,-40l432,0l0,40Z" style="fill:#fff;fill-rule:nonzero;"/></svg>