<?xml version="1.0" encoding="UTF-8" standalone="no"?>
<!DOCTYPE svg PUBLIC "-//W3C//DTD SVG 1.1//EN" "http://www.w3.org/Graphics/SVG/1.1/DTD/svg11.dtd">
<svg width="100%" height="100%" viewBox="0 0 78 78" version="1.1" xmlns="http://www.w3.org/2000/svg" xmlns:xlink="http://www.w3.org/1999/xlink" xml:space="preserve" xmlns:serif="http://www.serif.com/" style="fill-rule:evenodd;clip-rule:evenodd;stroke-linejoin:round;stroke-miterlimit:2;">
    <g transform="matrix(1,0,0,1,-284.988,-38.013)">
        <g transform="matrix(1.0661,-1.0661,0.590571,0.590571,-1487.69,743.267)">
            <path d="M1196.53,967.169C1196.53,965.307 1195.69,963.794 1194.66,963.794L1129.65,963.794C1128.61,963.794 1127.78,965.307 1127.78,967.169L1127.78,971.669C1127.78,973.532 1128.61,975.044 1129.65,975.044L1194.66,975.044C1195.69,975.044 1196.53,973.532 1196.53,971.669L1196.53,967.169Z" style="fill:rgb(64,64,64);"/>
        </g>
        <g transform="matrix(1.0661,1.0661,-0.590571,0.590571,-342.664,-1734.66)">
            <path d="M1196.53,967.169C1196.53,965.307 1195.69,963.794 1194.66,963.794L1129.65,963.794C1128.61,963.794 1127.78,965.307 1127.78,967.169L1127.78,971.669C1127.78,973.532 1128.61,975.044 1129.65,975.044L1194.66,975.044C1195.69,975.044 1196.53,973.532 1196.53,971.669L1196.53,967.169Z" style="fill:rgb(64,64,64);"/>
        </g>
    </g>
</svg>
