<?xml version="1.0" encoding="UTF-8" standalone="no"?>
<!DOCTYPE svg PUBLIC "-//W3C//DTD SVG 1.1//EN" "http://www.w3.org/Graphics/SVG/1.1/DTD/svg11.dtd">
<svg width="100%" height="100%" viewBox="0 0 513 320" version="1.1" xmlns="http://www.w3.org/2000/svg" xmlns:xlink="http://www.w3.org/1999/xlink" xml:space="preserve" xmlns:serif="http://www.serif.com/" style="fill-rule:evenodd;clip-rule:evenodd;stroke-linejoin:round;stroke-miterlimit:2;">
    <g transform="matrix(1,0,0,1,4.26326e-14,-96)">
        <path d="M259.093,416C333.163,416 306.752,369.109 312.469,355.627C312.384,345.557 312.299,335.872 312.64,329.984C317.333,331.307 328.405,336.917 351.275,359.147C386.581,394.773 395.605,416 424.128,416L476.629,416C493.269,416 501.931,409.109 506.261,403.328C510.443,397.739 514.539,387.925 510.059,372.651C498.347,335.872 430.037,272.363 425.792,265.664C426.432,264.427 427.456,262.784 427.989,261.931L427.947,261.931C441.429,244.117 492.885,167.019 500.459,136.171C500.48,136.128 500.501,136.064 500.501,136C504.597,121.92 500.843,112.789 496.96,107.627C491.115,99.904 481.813,96 469.248,96L416.747,96C399.168,96 385.835,104.853 379.093,121.003C367.808,149.696 336.107,208.704 312.341,229.589C311.616,200 312.107,177.408 312.491,160.619C313.259,127.872 315.733,96 281.749,96L199.232,96C177.941,96 157.568,119.253 179.627,146.859C198.912,171.051 186.56,184.533 190.72,251.648C174.507,234.261 145.664,187.307 125.269,127.296C119.552,111.061 110.891,96.021 86.507,96.021L34.005,96.021C12.715,96.021 0,107.627 0,127.061C0,170.709 96.619,416 259.093,416ZM86.507,128.021C91.136,128.021 91.605,128.021 95.04,137.771C115.925,199.275 162.773,290.283 196.992,290.283C222.699,290.283 222.699,263.936 222.699,254.016L222.677,175.04C221.269,148.907 211.755,135.893 205.504,128L280.341,128.085C280.384,128.448 279.915,215.445 280.555,236.523C280.555,266.453 304.32,283.605 341.419,246.059C380.565,201.877 407.637,135.829 408.725,133.141C410.325,129.301 411.712,128 416.747,128L469.461,128C469.44,128.064 469.44,128.128 469.419,128.192C464.619,150.592 417.237,221.973 401.387,244.139C401.131,244.48 400.896,244.843 400.661,245.205C393.685,256.597 388.011,269.184 401.621,286.891L401.643,286.891C402.88,288.384 406.101,291.883 410.795,296.747C425.387,311.808 475.435,363.307 479.872,383.787C476.928,384.256 473.728,383.915 424.128,384.021C413.568,384.021 405.312,368.235 373.803,336.448C345.472,308.885 327.083,297.621 310.336,297.621C277.824,297.621 280.192,324.011 280.491,355.925C280.597,390.528 280.384,379.584 280.619,381.76C278.72,382.507 273.28,384 259.093,384C123.733,384 35.584,169.152 32.192,128.085C33.365,127.979 49.515,128.043 86.507,128.021Z" style="fill-rule:nonzero;"/>
    </g>
</svg>
