<?xml version="1.0" encoding="UTF-8" standalone="no"?><!DOCTYPE svg PUBLIC "-//W3C//DTD SVG 1.1//EN" "http://www.w3.org/Graphics/SVG/1.1/DTD/svg11.dtd"><svg width="100%" height="100%" viewBox="0 0 23 18" version="1.1" xmlns="http://www.w3.org/2000/svg" xmlns:xlink="http://www.w3.org/1999/xlink" xml:space="preserve" xmlns:serif="http://www.serif.com/" style="fill-rule:evenodd;clip-rule:evenodd;stroke-linejoin:round;stroke-miterlimit:1.41421;"><g><path d="M15.022,7.976l-5.055,-2.767c-0.291,-0.159 -0.635,-0.153 -0.92,0.016c-0.285,0.169 -0.455,0.468 -0.455,0.799l0,5.485c0,0.33 0.169,0.628 0.452,0.797c0.148,0.088 0.312,0.133 0.477,0.133c0.15,0 0.301,-0.038 0.44,-0.112l5.055,-2.719c0.301,-0.161 0.488,-0.473 0.489,-0.814c0.001,-0.341 -0.184,-0.655 -0.483,-0.818Zm-5.089,2.843l0,-4.099l3.779,2.067l-3.779,2.032Z" style="fill-rule:nonzero;"/><path d="M22.773,4.424l-0.001,-0.011c-0.019,-0.184 -0.212,-1.822 -1.008,-2.655c-0.921,-0.981 -1.965,-1.1 -2.467,-1.157c-0.041,-0.004 -0.079,-0.009 -0.113,-0.013l-0.04,-0.005c-3.026,-0.22 -7.594,-0.25 -7.64,-0.25l-0.004,0l-0.004,0c-0.046,0 -4.615,0.03 -7.667,0.25l-0.041,0.005c-0.032,0.004 -0.068,0.008 -0.107,0.013c-0.496,0.057 -1.528,0.176 -2.452,1.192c-0.758,0.824 -0.978,2.427 -1,2.607l-0.003,0.024c-0.007,0.077 -0.168,1.901 -0.168,3.733l0,1.712c0,1.832 0.161,3.657 0.168,3.734l0.002,0.011c0.019,0.181 0.212,1.79 1.004,2.623c0.866,0.948 1.961,1.073 2.549,1.14c0.093,0.012 0.173,0.021 0.228,0.03l0.053,0.008c1.747,0.166 7.223,0.248 7.456,0.251l0.007,0.001l0.007,-0.002c0.045,0 4.614,-0.03 7.639,-0.25l0.04,-0.003c0.038,-0.006 0.081,-0.011 0.129,-0.015c0.493,-0.052 1.52,-0.162 2.43,-1.162c0.759,-0.825 0.978,-2.429 1.001,-2.609l0.002,-0.024c0.007,-0.076 0.169,-1.901 0.169,-3.733l0,-1.712c0,-1.832 -0.162,-3.656 -0.169,-3.733Zm-1.172,5.445c0,1.696 -0.148,3.442 -0.162,3.602c-0.057,0.442 -0.289,1.456 -0.658,1.858c-0.57,0.627 -1.155,0.689 -1.583,0.734c-0.052,0.005 -0.099,0.011 -0.143,0.016c-2.926,0.212 -7.322,0.244 -7.525,0.245c-0.227,-0.003 -5.623,-0.086 -7.317,-0.243c-0.087,-0.014 -0.18,-0.025 -0.279,-0.036c-0.501,-0.057 -1.188,-0.136 -1.715,-0.716l-0.013,-0.014c-0.363,-0.378 -0.587,-1.326 -0.644,-1.839c-0.011,-0.121 -0.163,-1.888 -0.163,-3.607l0,-1.712c0,-1.694 0.148,-3.438 0.162,-3.601c0.068,-0.52 0.304,-1.473 0.658,-1.858c0.587,-0.646 1.206,-0.718 1.616,-0.765c0.039,-0.005 0.076,-0.009 0.109,-0.013c2.969,-0.213 7.397,-0.245 7.556,-0.246c0.159,0.001 4.585,0.033 7.527,0.246c0.037,0.004 0.076,0.009 0.118,0.014c0.422,0.048 1.058,0.12 1.643,0.743l0.005,0.006c0.363,0.379 0.588,1.344 0.645,1.866c0.01,0.115 0.163,1.885 0.163,3.608l0,1.712Z" style="fill-rule:nonzero;"/></g></svg>